
        <svg xmlns="http://www.w3.org/2000/svg" xmlns:xlink="http://www.w3.org/1999/xlink" version="1.1" width="2815.2188951920375" 
        height="3169.336474898769" viewBox="0 0 2815.2188951920375 3169.336474898769">
			<rect fill="#ffffff" width="2815.2188951920375" height="3169.336474898769"/>
			<g transform="scale(8.46682374493846) translate(10, 10)">
				<defs id="SvgjsDefs1297"></defs><g id="SvgjsG1298" featureKey="rootContainer" transform="matrix(6.3004014813942035,0,0,6.3004014813942035,0.000046358657472104394,0.02629501308574099)" fill="#393e46"><path xmlns="http://www.w3.org/2000/svg" d="M23.11 55.78L1.69 43.41A3.39 3.39 0 0 1 0 40.48V15.75a3.39 3.39 0 0 1 1.69-2.94L23.11.45a3.39 3.39 0 0 1 3.39 0l21.41 12.37a3.39 3.39 0 0 1 1.69 2.94v24.72a3.39 3.39 0 0 1-1.69 2.94L26.5 55.78a3.39 3.39 0 0 1-3.39 0z"></path></g><g id="SvgjsG1299" featureKey="nameFeature-0" transform="matrix(3.162555451548819,0,0,3.162555451548819,49.80138968629844,93.29031898084605)" fill="#ffffff"><path d="M30.76 40.2 c-0.04 -4.28 -1.64 -19.44 -1.76 -20.52 c-2.88 5.2 -5.64 10.44 -8.28 15.76 c-1.24 2.52 -1.6 3.52 -2.08 4.76 c-0.2 -0.04 -0.4 -0.08 -0.56 -0.08 s-0.32 0.04 -0.52 0.08 c-0.72 -1.64 -1.16 -2.64 -1.88 -4.04 c-2.8 -5.4 -6 -11.52 -8.64 -16.12 c-0.96 6 -1.68 16.56 -1.64 20.16 c-0.64 -0.16 -1 -0.24 -1.52 -0.24 c-0.8 0 -1.52 0.16 -1.92 0.24 c0.4 -1.88 3.2 -19.08 4.12 -27.84 c0.2 0.04 0.44 0.08 0.68 0.08 c0.2 0 0.52 -0.04 0.8 -0.08 c1.16 2.64 9 17.44 11.56 21.56 c6.44 -11.96 7.16 -13.28 9.52 -17.76 c0.96 -1.88 1.16 -2.28 1.84 -3.8 c0.28 0.04 0.48 0.08 0.72 0.08 c0.2 0 0.44 -0.04 0.76 -0.08 c0.92 8.44 2.24 20.32 3.28 26.76 c0.04 0.28 0.08 0.56 0.24 1.08 c-1.08 -0.16 -1.52 -0.24 -2.24 -0.24 c-1.16 0 -1.8 0.12 -2.48 0.24 z M64.56 34.64 l0.48 0.2 c-0.2 0.92 -0.36 1.76 -0.44 3.24 c-2.96 1.76 -6.4 2.6 -9.92 2.6 c-9.28 0 -14.68 -6.08 -14.68 -14.32 c0 -7.72 4.8 -14.12 15.32 -14.12 c4.84 0 8.08 1.32 9.88 2.12 c-0.6 1.64 -0.76 2.16 -0.96 4 l-0.4 0 c-1.08 -2.28 -4.6 -4.4 -8.68 -4.4 c-6.32 0 -10.52 4.64 -10.52 12.36 c0 8.32 5.16 12.44 10.84 12.44 c1.8 0 5.96 -0.4 9.08 -4.12 z"></path></g>
			</g>
		</svg>
	